<?xml version="1.0" encoding="UTF-8"?>
<svg width="177px" height="27px" viewBox="0 0 177 27" version="1.1" xmlns="http://www.w3.org/2000/svg" xmlns:xlink="http://www.w3.org/1999/xlink">
    <defs></defs>
    <g id="Page-1" stroke="none" stroke-width="1" fill="none" fill-rule="evenodd">
        <g id="fastco" transform="translate(-8.000000, -83.000000)" fill="#fff" fill-rule="nonzero">
            <g id="Group" transform="translate(8.000000, 83.000000)">
                <path d="M84.02,7.371 C84.02,10.905 83.667,21.86 83.667,21.86 C83.667,23.98 84.373,24.922 86.376,24.922 L86.376,25.864 L78.484,25.864 L78.484,24.922 C80.486,24.922 81.546,23.98 81.546,21.86 L82.253,3.955 C81.664,2.541 81.075,2.07 79.544,1.953 L79.544,1.129 L85.551,1.129 L91.912,17.856 L98.391,1.129 L103.809,1.129 L103.809,1.953 C102.278,1.953 101.454,2.66 101.454,4.309 L102.161,21.625 C102.161,24.217 102.632,24.923 104.753,24.923 L104.753,25.865 L95.683,25.865 L95.683,24.923 C97.449,24.923 98.275,24.334 98.156,21.625 C98.156,21.625 97.802,9.492 97.685,7.372 L93.328,19.387 C92.673593,21.0796747 92.1225789,22.8105269 91.678,24.57 L90.266,24.688 C89.912,23.392 88.97,21.037 88.97,21.037 C88.97,21.037 85.315,10.787 84.02,7.371 Z M76.599,25.982 C76.128,25.864 75.657,25.864 75.185,25.864 C74.243,25.864 72.593,26.335 70.591,26.335 C62.934,26.335 57.28,21.741 57.28,13.26 C57.28,6.075 62.581,0.539 70.708,0.539 C72.592,0.539 74.713,0.893 76.48,1.599 C76.833,1.245 76.951,1.01 77.304,0.657 L78.011,0.657 C77.893,1.953 77.422,6.193 77.422,6.193 L76.715,6.193 C76.244,3.72 74.948,2.07 70.825,2.07 C65.878,2.07 61.402,5.957 61.402,13.143 C61.402,21.271 65.996,24.804 71.061,24.804 C74.36,24.804 76.362,22.92 77.658,20.564 L78.483,20.918 L76.599,25.982 Z M54.335,5.722 L53.511,5.722 C53.393,3.484 52.686,2.777 50.919,2.777 L47.503,2.777 L47.503,21.271 C47.503,24.333 48.092,24.922 50.095,24.922 L50.095,25.864 L41.26,25.864 L41.26,24.922 C43.263,24.922 43.852,24.333 43.852,21.152 L43.852,2.777 L40.436,2.777 C38.198,2.777 37.844,3.366 37.255,5.722 L36.431,5.722 L37.02,0.421 L37.609,0.539 C37.844,1.128 38.316,1.128 39.729,1.128 L51.155,1.128 C53.276,1.128 53.747,1.128 54.218,0.421 L54.925,0.421 L54.335,5.722 Z" id="Shape"></path>
                <path d="M29.363,26.453 C27.714,26.453 26.418,26.218 25.476,25.864 C24.534,25.629 23.827,25.275 23.474,25.04 C23.003,25.511 22.649,26.1 22.649,26.1 L21.942,25.865 L22.531,20.329 L23.356,20.447 C23.827,23.038 25.594,24.923 29.246,24.923 C32.073,24.923 33.958,22.568 33.958,19.976 C33.958,17.856 33.133,16.795 30.306,14.675 C29.364,14.086 28.539,13.615 27.832,13.026 C25.241,11.378 23.591,9.493 23.591,6.43 C23.591,2.896 26.536,0.54 30.423,0.54 C32.661,0.54 34.075,1.247 34.546,1.482 L35.37,0.54 L35.959,0.658 L35.37,5.723 L34.546,5.605 C34.546,3.25 33.132,2.189 30.776,2.189 C28.538,2.189 26.889,3.367 26.889,5.605 C26.889,7.608 28.42,8.903 30.187,10.082 C31.129,10.671 31.836,11.142 32.542,11.613 C36.665,14.557 37.607,16.442 37.607,19.269 C37.609,23.391 34.428,26.453 29.363,26.453 Z M15.935,5.722 L14.993,5.722 C14.993,3.601 14.051,2.777 12.166,2.777 L6.865,2.777 L6.865,12.083 L10.281,12.083 C12.048,12.083 12.402,11.141 12.637,9.609 L13.461,9.609 L13.461,16.206 L12.637,16.206 C12.402,14.439 12.048,13.732 10.163,13.732 L6.865,13.732 L6.865,21.625 C6.865,24.569 7.572,24.923 9.457,24.923 L9.457,25.865 L0.504,25.865 L0.504,24.923 C2.742,24.923 3.095,24.334 3.095,21.625 L3.095,4.308 C3.095,2.659 2.388,1.952 0.504,1.952 L0.504,1.128 L12.754,1.128 C14.874,1.128 15.345,1.01 15.699,0.303 L16.524,0.303 L15.935,5.722 Z M143.035,7.135 L143.035,21.27 C143.035,24.332 143.74,24.921 145.625,24.921 L145.625,25.863 L131.727,25.863 L131.727,24.921 C132.788,24.921 133.729,24.567 133.729,23.861 C133.729,23.389 133.612,22.565 133.375,21.74 L132.314,18.324 L124.541,18.324 C124.422,18.796 123.01,22.682 123.01,23.743 C123.01,24.685 124.071,24.921 124.776,24.921 L124.776,25.863 L118.297,25.863 L118.297,24.921 C119.475,24.921 120.418,24.803 121.242,22.33 L127.25,3.129 C126.896,2.305 126.426,2.069 125.602,1.951 L125.602,1.127 L130.903,1.127 L137.262,21.27 C137.852,23.39 138.44,24.451 139.383,24.921 C140.797,24.45 141.151,23.979 141.151,21.27 L141.151,4.308 C140.09,2.894 139.971,1.952 137.969,1.952 L137.969,1.128 L143.977,1.128 L153.872,17.972 L153.872,5.133 C153.872,2.541 153.284,1.952 151.28,1.952 L151.28,1.128 L164.473,1.128 L164.473,1.952 C163.649,1.952 162.942,2.306 162.942,3.13 C162.942,3.719 163.178,4.308 163.413,5.015 L167.183,13.143 L170.835,5.251 C171.423,4.191 171.542,3.602 171.542,3.013 C171.542,2.306 171.069,1.952 170.011,1.952 L170.011,1.128 L176.253,1.128 L176.253,1.952 C174.722,1.952 173.778,3.366 173.073,5.014 L168.243,14.909 L168.243,21.388 C168.243,24.216 168.95,24.922 170.835,24.922 L170.835,25.864 L161.882,25.864 L161.882,24.922 C163.767,24.922 164.474,24.216 164.474,21.388 L164.474,15.852 L159.29,4.897 C158.349,2.777 157.995,2.306 157.405,1.952 C156.227,2.423 155.874,3.248 155.874,5.133 L155.874,23.273 C155.874,23.273 155.993,24.687 156.11,26.335 L154.579,26.453 L143.035,7.135 Z M128.311,5.957 L125.012,16.677 L131.844,16.677 L128.311,5.957 Z" id="Shape"></path>
                <path d="M113.703,16.677 L111.937,16.677 L111.937,21.741 C111.937,24.333 112.642,24.922 114.646,24.922 L114.646,25.864 L105.576,25.864 L105.576,24.922 C107.461,24.922 108.168,24.216 108.168,21.624 L108.168,5.015 C108.168,2.424 107.461,1.953 105.576,1.953 L105.576,1.129 L112.408,1.129 C119.004,1.129 122.89,3.131 122.89,8.549 C122.891,14.203 118.18,16.677 113.703,16.677 Z M112.525,2.777 L111.937,2.777 L111.937,14.909 L112.996,14.909 C116.885,14.909 118.887,13.142 118.887,8.666 C118.887,4.19 117.119,2.777 112.525,2.777 Z M72.593,21.152 C68.117,21.152 65.054,17.971 65.054,13.378 C65.054,9.02 68.235,5.604 72.593,5.604 C76.834,5.604 80.014,8.902 80.014,13.378 C80.015,17.736 76.716,21.152 72.593,21.152 Z M72.593,7.017 C69.531,7.017 68.47,9.962 68.47,13.378 C68.47,16.559 69.413,19.739 72.593,19.739 C75.656,19.739 76.598,16.558 76.598,13.26 C76.599,10.08 75.421,7.017 72.593,7.017 Z M20.765,19.739 L20.765,18.914 C21.943,18.914 22.179,18.561 22.179,18.208 C22.179,17.736 22.061,17.383 21.943,17.03 C21.943,17.03 21.707,16.087 21.472,15.381 L16.878,15.381 L16.407,16.912 C16.29,17.266 16.172,17.619 16.172,18.09 C16.172,18.562 16.643,18.914 17.35,18.914 L17.35,19.739 L12.756,19.739 L12.756,18.914 C13.934,18.914 14.405,18.561 14.876,17.266 L18.41,6.664 C18.292,6.192 17.938,5.839 17.232,5.839 L17.232,5.014 L21,5.014 C22.2853949,8.78718933 23.5810664,12.55687 24.887,16.323 C25.476,18.325 26.065,18.914 27.007,18.914 L27.007,19.739 L20.765,19.739 Z M19.115,8.313 L17.348,14.085 L21,14.085 L19.115,8.313 Z" id="Shape"></path>
            </g>
        </g>
    </g>
</svg>