<svg xmlns="http://www.w3.org/2000/svg" viewBox="0 0 82.48 30"><defs><style>.tmf-1{fill:#fff;}.tmf-2{fill:#fff;}</style></defs><title>logo_dark_S</title><g id="Layer_2" data-name="Layer 2"><polygon class="tmf-1" points="17.08 11.69 17.08 30 13.71 30 13.71 15.06 0 15.06 0 11.69 17.08 11.69"/><path class="tmf-1" d="M47.06,14.31V30H43.69V15.06H40L36.58,28h0A2.64,2.64,0,0,1,34,30H31.26a2.65,2.65,0,0,1-2.57-2l-.31-1.18L25.26,15.06H21.68V30H18.31V14.31a2.62,2.62,0,0,1,2.62-2.62h4.35a3.34,3.34,0,0,1,3.23,2.48l.24.89,3.06,11.57h1.65l3.07-11.57.23-.89A3.35,3.35,0,0,1,40,11.69h4.45A2.62,2.62,0,0,1,47.06,14.31Z"/><path class="tmf-1" d="M51.57,15.06v4.1h19v3.37h-19V30H48.2V14.42a2.73,2.73,0,0,1,2.73-2.73H71.05v3.37Z"/><polygon class="tmf-2" points="82.48 5.26 82.48 8.63 77.22 8.63 77.22 13.89 73.85 13.89 73.85 8.63 68.59 8.63 68.59 5.26 73.85 5.26 73.85 0 77.22 0 77.22 5.26 82.48 5.26"/></g></svg>