<?xml version="1.0" encoding="UTF-8"?>
<svg width="1440px" height="360px" viewBox="0 0 1440 360" version="1.1" xmlns="http://www.w3.org/2000/svg" xmlns:xlink="http://www.w3.org/1999/xlink">
    <!-- Generator: Sketch 51.3 (57544) - http://www.bohemiancoding.com/sketch -->
    <title>Group 55</title>
    <desc>Created with Sketch.</desc>
    <defs></defs>
    <g id="Page-1" stroke="none" stroke-width="1" fill="none" fill-rule="evenodd" opacity="0.216908482">
        <g id="fastco_inspiren" transform="translate(0.000000, -7550.000000)" stroke="#FEFEFE" stroke-width="2">
            <g id="Group-55" transform="translate(-109.000000, 7551.000000)">
                <path d="M0,49.0225978 L252.475611,49.0225978 C262.570945,49.0219306 272.887189,49.021597 283.386194,49.0035827 C317.256442,49.0809773 357.179987,47.4129892 374.036595,34.7362796 C390.893203,21.3923747 404.201051,1.71011499 452.109305,2.71090786 C513.325407,3.71170072 573.65432,10.7172508 633.851928,4.98437565 C645.20441,4.12569537 656.623431,3.30704681 668.160448,2.5364363 C679.698353,1.76582579 691.355141,1.04291974 703.184043,0.375724499 C736.010069,-1.29226361 766.174525,2.71090786 792.790222,10.0500555 C846.576109,24.2279545 900.708887,38.4058534 959.471022,45.146527 C971.223627,46.4949286 983.161654,47.5454275 995.983322,48.1459032 C1058.06,51.4161607 1117.50172,41.7418297 1173.39468,32.7346939 C1234.61079,23.0603628 1318.00664,8.71566506 1365.0277,28.3979248 C1423.58223,52.4169536 1507.86527,54.4185393 1583.45385,52.4102816 C1595.30316,51.992951 1607.1569,51.4101559 1619,50.6558917" id="Stroke-1"></path>
                <path d="M0,59.9895135 L287.74875,59.9895135 C295.509765,59.9895135 303.384404,59.9780118 311.249278,59.8616797 C375.132293,62.4462893 393.773642,37.7996621 416.853407,20.7113339 C429.280973,11.8385482 456.799155,9.20957459 481.654287,10.1954397 C537.578334,12.8244132 593.502381,18.4109821 649.698059,14.6607513 C659.289477,14.0840202 668.95546,13.4816566 678.719976,12.8244132 C767.488305,6.58060103 826.075401,33.8562018 897.090064,47.9869347 C915.287571,51.4374625 933.92892,54.3129023 953.134836,56.3105936 C962.737794,57.3096036 972.481893,58.0890942 982.703566,58.5669102 C1064.8622,62.774911 1135.87687,45.0293394 1208.6669,33.5275801 C1249.50033,26.9551462 1300.98596,24.3261726 1336.49329,36.4851753 C1367.5622,47.3296913 1386.20355,63.7607761 1432.672,65.9730574 C1445.96683,66.9004278 1459.53507,67.2037456 1473.01277,66.8665797 C1519.63567,65.6529798 1565.53067,62.1469149 1612,61.1633502" id="Stroke-3"></path>
                <path d="M0,72.7037418 L256.2333,72.7037418 C271.606499,72.695129 287.472975,72.6904913 303.809661,72.6792283 C315.514337,73.2231641 326.807357,73.2549655 337.58226,72.7680071 C387.343766,69.6484921 405.087533,49.7726398 425.492865,34.8657505 C440.575067,22.9402392 471.626658,17.6400119 506.227004,19.2963329 C555.022362,21.2839181 600.268967,26.5841454 649.40057,26.5374372 C661.814997,26.475822 673.758326,26.1425702 685.439048,25.5903528 C766.173186,21.6151823 822.95324,46.7912619 890.379554,60.3730943 C906.348944,63.5750941 922.81161,66.1516671 939.602537,67.9968087 C947.998,68.9193795 956.475972,69.6587612 965.01516,70.2023658 C1051.84783,75.942512 1126.37165,55.072867 1202.66985,42.153563 C1239.93176,35.8595432 1287.83993,35.5282789 1312.6812,49.7726398 C1336.63529,63.6857364 1363.25094,76.2737762 1405.66209,80.4858005 C1414.88441,81.4709803 1424.21852,82.2037367 1433.65643,82.6164919 C1452.53225,83.4423336 1471.82682,82.9888329 1491.48514,80.723317 C1528.98215,76.5096363 1566.47828,73.383496 1605,73.3096241" id="Stroke-5"></path>
                <path d="M0,84.5571414 L248.908032,84.5571414 C263.89723,84.540822 279.361331,84.5324958 295.301224,84.5121799 C306.278153,85.1453043 316.853854,85.3457992 327.08159,85.1716151 C337.310213,84.9974309 347.17134,84.4385763 356.53271,83.4364347 C376.902076,81.2526385 391.992468,75.5908213 404.41985,68.92986 C434.600635,51.9444085 445.252676,22.3031305 515.378617,27.6318996 C567.751155,31.6284764 615.685342,38.6224858 667.87502,37.5297551 C680.152386,36.9569124 691.761336,36.8530014 702.977048,37.2076976 C781.485258,39.6892388 840.709721,64.6418661 912.167167,76.5899655 C922.375374,78.2552059 932.861421,79.5247851 943.509024,80.424681 C954.212551,81.3132532 965.104263,81.8344734 976.337729,82.0199812 C1057.74507,82.2517827 1124.32033,62.6019467 1196.22161,50.2791682 C1224.62705,45.6164952 1260.13386,45.6164952 1279.6626,56.2740334 C1309.84339,73.2594848 1340.02417,90.2449363 1393.74774,94.2295234 C1402.40874,95.0648079 1411.23129,95.6416472 1420.24115,95.8791105 C1429.251,96.1162407 1438.44815,96.0136619 1447.85834,95.4901103 C1501.03688,92.7567848 1549.84542,84.4202586 1603,84.6920259" id="Stroke-7"></path>
                <path d="M0,96.2842671 L259.424415,96.2842671 C275.10839,96.2295462 291.245173,96.1897493 307.956398,96.0942366 C318.582258,96.5067984 328.726013,96.5051402 338.466681,96.1506156 C348.234873,95.821959 357.599977,95.1397727 366.638351,94.1441853 C421.373785,87.4556423 432.915912,64.9040295 463.990872,48.3219612 C509.271527,23.7805003 587.402853,46.3321131 646.889204,49.3168853 C660.207043,49.9801681 672.637027,50.9750922 685.838558,50.592378 C695.706189,50.4159448 705.192042,50.6527368 714.436399,51.2284662 C760.658181,54.1071132 801.22876,65.6223647 844.881087,72.5317809 C873.292478,76.9535552 903.676686,79.1646082 934.238464,80.6361009 C941.879353,81.0042228 949.530896,81.3259149 957.182439,81.6210758 C1041.09726,86.4607182 1117.45287,69.2153672 1194.69634,58.6028436 C1211.56561,56.6129954 1231.98629,56.9446367 1243.52842,61.9192572 C1281.70623,78.1696841 1309.22976,99.7263728 1370.35066,104.064242 C1378.60328,104.932811 1386.94291,105.661758 1395.38731,106.176134 C1412.27611,107.204886 1429.58042,107.375018 1447.43254,106.08228 C1500.98712,102.272052 1549.80588,96.2842671 1603,96.2842671" id="Stroke-9"></path>
                <path d="M0,107.331416 L244.340316,107.331416 C259.185974,107.277633 274.462238,107.241887 290.275649,107.164819 C301.890439,107.705276 313.079064,107.809563 323.901896,107.537367 C334.723841,107.265171 345.179993,106.61682 355.326288,105.653313 C422.256495,102.307272 455.994611,80.3348385 480.854276,59.674192 C489.732728,52.1314164 510.153166,49.5078422 530.573605,51.8034696 C592.722766,58.6903517 653.984082,63.9375 718.066083,64.5035361 C727.398223,65.1056464 736.553683,66.069154 745.432134,67.5449145 C797.593037,76.1535172 851.141643,83.3529326 906.216454,87.0121626 C917.231949,87.7438119 928.307817,88.334116 939.445835,88.765694 C1006.45861,92.1409221 1070.38346,82.6304658 1132.53262,74.7597434 C1161.83151,71.1523289 1202.67239,62.2977662 1225.75637,72.7920628 C1259.49448,88.2055609 1284.35415,106.898527 1338.8998,112.039092 C1350.32015,113.368261 1361.80443,114.300285 1373.44675,114.950604 C1385.08906,115.600922 1396.8903,115.971502 1408.87709,115.998394 C1419.15213,116.021678 1429.563,115.792443 1440.12836,115.27068 C1476.56019,113.386954 1512.26222,110.561036 1548.61948,108.701906 C1557.60803,108.270984 1566.61699,107.917129 1575.67124,107.676416 C1584.72637,107.436031 1593.82767,107.309116 1603,107.331416" id="Stroke-11"></path>
                <path d="M0,119.447612 L166.30304,119.447612 C191.891469,119.447612 219.909916,119.437354 250.068945,119.379442 C275.358172,120.718696 299.652131,120.585333 322.991663,119.223907 C334.661428,118.543194 346.093253,117.555382 357.337744,116.370671 C419.590403,112.822822 471.085109,97.2693417 495.944622,75.0973587 C504.82302,66.8242307 533.233892,70.7953321 552.766366,72.1190326 C610.47595,76.4210592 664.634175,77.4138345 721.344939,78.282513 C732.109996,78.9857289 742.764073,80.0612355 753.41815,81.384936 C800.584637,87.589782 848.791672,93.0189395 897.850146,95.5141149 C907.661663,96.01315 917.507806,96.3947066 927.385911,96.6419077 C1003.78896,98.9239673 1072.15262,87.010663 1146.73116,80.3921606 C1172.47851,78.0756848 1204.44074,78.737535 1215.98266,88.0034384 C1241.73001,108.851721 1293.22472,124.074276 1355.59813,124.21161 C1365.87132,124.557096 1376.17736,124.780471 1386.48607,124.89828 C1407.10437,125.133899 1427.73333,124.947257 1448.135,124.472048 C1499.86676,123.249942 1550.87049,119.583623 1603,119.447612" id="Stroke-13"></path>
                <path d="M0,130.197064 L158.261951,130.197064 C182.674142,130.197064 209.423141,130.189948 238.255913,130.137226 C263.391697,131.307157 287.736411,131.254434 311.240336,130.11329 C322.990967,129.542718 334.532066,128.700121 345.866298,127.640487 C400.948211,122.525391 455.106766,115.085957 491.508418,97.296006 C514.592392,85.6516746 554.545424,94.0614695 585.620005,95.3552841 C593.610611,95.6787378 600.713373,95.6787378 608.703979,95.0318305 C643.329941,92.7676549 676.180212,91.4738403 710.52295,92.3400492 C720.346069,92.5622619 730.091945,93.0011885 739.809411,93.6063702 C759.243453,94.8160869 778.578945,96.5410652 797.814999,98.9132743 C831.997037,103.118172 866.622999,104.573713 901.508211,104.789457 C913.136319,104.861587 924.812371,104.791397 936.89328,104.513227 C1006.45861,103.441625 1068.60777,92.7676549 1137.8597,89.2096648 C1153.84091,88.5627575 1171.59781,89.2096648 1179.58842,94.0614695 C1212.43869,113.792142 1253.27957,130.935186 1319.00497,131.427806 C1328.53865,131.78781 1338.09985,132.011639 1347.66994,132.178542 C1376.3793,132.679248 1405.15436,132.785017 1433.57073,132.984265 C1490.03946,133.24982 1546.50819,130.064448 1603,130.197064" id="Stroke-15"></path>
                <path d="M0,144.620999 L227.147298,144.620999 C241.075983,144.549747 255.382894,144.508071 270.200323,144.431441 C292.678172,145.620212 313.86508,145.187993 334.055813,143.551206 C344.150735,142.733149 354.015703,141.669406 363.722632,140.439296 C411.607369,133.053591 452.448744,122.298527 494.177975,109.526888 C506.607959,105.829834 521.70151,105.493739 536.795062,106.502026 C562.542885,107.846409 585.627141,112.55175 610.487108,112.215654 C648.664916,111.207367 685.067011,104.485451 723.623932,108.60901 C734.119278,109.244231 744.534716,109.940286 754.91908,110.615838 C796.45831,113.317712 837.496789,115.693573 878.579661,116.274346 C890.904878,116.44878 903.236309,116.459871 915.716013,116.193011 C929.227405,115.576611 942.545245,114.90442 955.863085,113.896133 C1023.34014,108.854696 1092.59291,92.7220996 1156.51854,103.81326 C1186.70564,126.331676 1231.98629,149.858379 1308.21228,144.103412 C1317.64753,144.193149 1327.07301,144.293978 1336.49138,144.426736 C1374.164,144.958103 1411.72919,146 1449.61844,146 C1500.6231,146 1551.62688,144.207265 1603,144.620999" id="Stroke-17"></path>
                <path d="M0,155.627247 L218.386949,155.627247 C245.051338,155.55537 273.574631,155.47547 304.121865,155.167235 C314.155505,155.348766 323.84842,155.119429 333.252074,154.546085 C342.655728,153.972408 351.774557,153.062413 360.739882,151.750576 C406.915212,143.88758 441.52009,130.849448 484.998014,119.817183 C525.814024,109.787851 568.404643,119.148561 610.107958,121.82305 C634.065181,123.160294 656.247795,120.151494 679.317714,121.154428 C689.078064,121.488739 697.95111,121.82305 707.826809,122.831332 C718.372424,123.564476 728.751226,124.35579 739.107845,125.056506 C780.53432,127.85937 821.620071,129.207313 862.819396,128.651019 C873.119228,128.511946 883.426158,128.253857 893.920309,127.752391 C910.016901,127.172027 925.988383,125.500471 941.959865,123.828916 C1002.29658,116.474073 1086.59051,95.0781647 1132.73035,115.805451 C1175.32097,135.195492 1209.92584,161.606066 1286.5162,153.331868 C1294.98109,153.200818 1303.44597,153.102196 1311.91086,153.065756 C1320.37574,153.029316 1328.84063,153.055058 1337.3064,153.158026 C1380.99728,153.569563 1424.68815,156.038784 1468.22287,155.994989 C1477.97789,156.015382 1487.84294,155.97025 1497.71066,155.918767 C1527.31557,155.764649 1556.94267,155.558714 1586.52363,155.627247 L1602,155.627247" id="Stroke-19"></path>
                <path d="M0,166.849986 L203.578723,166.849986 C228.446321,166.817812 255.079655,166.785965 283.333207,166.698305 C295.796287,167.171406 307.73497,167.07324 319.253957,166.507883 C330.772058,165.942854 341.870464,164.910634 352.650327,163.515954 C400.70408,155.091408 434.421654,139.332319 481.448796,129.811202 C554.20777,115.365371 636.727095,135.064232 712.112491,138.560123 C722.42297,139.480717 732.715703,140.398684 742.990689,141.261822 C773.81565,143.851238 804.480896,145.947196 834.986427,146.139917 C845.154937,146.204595 855.308363,146.054555 865.467113,145.619867 C908.242292,143.92872 941.072561,133.42266 978.339352,126.199745 C1021.81728,117.663571 1092.80164,109.455712 1122.97,129.154574 C1151.36374,148.196806 1184.19401,171.83544 1252.40821,163.469662 C1264.28567,163.111471 1276.11876,162.830762 1287.91104,162.673828 C1335.08104,162.045106 1381.60419,163.39218 1429.42104,165.637522 C1448.71814,166.58044 1467.28676,166.849986 1486.37179,166.84933 C1499.3291,166.90383 1512.41596,166.89792 1525.50636,166.888728 C1538.59588,166.879535 1551.68983,166.86673 1564.78733,166.849986 L1585.10395,166.849986 L1602,166.849986" id="Stroke-21"></path>
                <path d="M0,178.756215 L196.436809,178.756215 C220.457918,178.733606 246.204834,178.710997 273.486788,178.658464 C298.145869,179.631322 321.191831,178.469944 343.127774,175.88552 C354.095746,174.593142 364.798413,172.845589 375.362662,170.451348 C385.619902,167.945392 394.492948,165.285493 404.253298,162.293108 C443.294699,151.321028 471.688445,132.369254 524.039415,133.366716 C565.742729,134.364178 605.671435,138.021538 646.487445,142.343872 C667.782754,144.671283 683.754237,150.988541 705.354779,154.017168 C713.700766,155.262332 722.130159,156.318977 730.615453,157.259251 C756.069559,160.080073 782.023217,161.856885 807.976876,162.251547 C818.358339,162.409479 828.739803,162.346639 839.089323,162.04075 C891.383505,160.963159 932.199515,148.993617 974.790134,137.356563 C1009.39501,127.714432 1069.73172,120.067225 1098.12547,137.024076 C1126.51921,153.980926 1148.70183,182.574831 1215.23193,175.382799 C1225.17684,174.89637 1235.08182,174.419251 1244.95219,173.995995 C1304.17356,171.457122 1362.06486,171.04783 1423.23209,176.164144 C1449.81041,178.483243 1474.93266,178.756215 1501.00788,178.733938 C1511.24117,178.756215 1521.5126,178.756215 1531.77517,178.756215 L1583.63634,178.756215 L1602,178.756215" id="Stroke-23"></path>
                <path d="M0,191.642795 L68.8362009,191.642795 C112.640653,191.642795 175.218695,191.642795 250.337012,191.634091 C279.440602,192.740464 306.987859,191.266193 333.516491,188.179731 C342.359368,187.150688 351.089558,185.942549 359.725693,184.591134 C366.099202,183.537318 372.310334,182.533046 378.521466,181.194017 C432.647044,169.142756 468.139227,142.696933 536.461679,145.040234 C558.644293,145.709749 579.052298,148.053049 601.234912,148.387807 C641.163617,149.392078 666.89545,161.108582 699.526075,167.865992 C708.155112,169.686737 716.862232,171.297588 725.735278,172.793619 C734.608323,174.289649 743.647295,175.670522 752.963993,176.842173 C765.534437,178.292676 777.981545,179.157354 790.296445,179.530943 C802.611345,179.904532 814.794037,179.787032 826.836534,179.272845 C886.946982,177.17693 932.199515,162.447611 981.888571,149.392078 C1014.71884,140.68839 1061.74598,139.349361 1081.26668,155.082952 C1103.4493,172.490329 1139.82878,195.923336 1201.6677,188.298905 C1212.61172,187.661527 1223.55484,186.929078 1234.48377,186.22977 C1278.20216,183.431534 1321.64991,181.20339 1367.52533,184.225244 C1408.30408,186.835011 1446.1698,190.955873 1486.51642,191.489476 C1500.74524,191.635096 1514.04948,191.642795 1526.09287,191.642795 L1602,191.642795" id="Stroke-25"></path>
                <path d="M0,203 L183.112156,202.999644 L204.610658,202.999644 L227.045267,202.999644 C246.882735,203.013975 266.585333,202.597042 286.272847,201.490886 C303.100578,200.69568 319.07206,199.36256 334.156238,197.029601 C344.249327,195.529841 354.2457,193.920765 364.191497,192.261031 C374.137294,190.600964 384.051148,188.730264 394.046634,186.323316 C444.182004,174.033285 492.09645,154.036489 558.644293,157.369289 C578.164993,158.369128 595.911085,159.702248 615.431785,161.035368 C624.304831,161.368648 632.290572,163.368327 639.389008,165.368007 C657.1351,171.700326 672.219277,178.699204 694.591775,182.857871 C702.832172,184.274978 711.169286,185.528443 719.580046,186.620602 C744.8141,189.896743 770.714521,191.720451 796.671728,192.160381 C807.054966,192.336353 817.447077,192.291027 827.80902,192.028402 C877.186632,191.363842 920.664556,182.365284 960.593261,170.700486 C987.212398,163.035047 1027.1411,158.369128 1050.21102,170.700486 C1085.7032,190.030722 1135.39226,208.694398 1200.03062,199.484541 C1207.83092,198.942627 1215.60814,198.372719 1223.39069,197.80281 C1246.73834,196.093417 1270.13123,194.384024 1294.34311,193.426511 C1348.9576,191.375507 1398.83742,198.213078 1453.08722,201.631863 C1464.37374,202.315754 1475.29646,202.589376 1486.53062,202.81534 C1500.73193,202.997978 1514.04948,202.999644 1526.09287,202.999644 L1602,203" id="Stroke-27"></path>
                <path d="M0,215.52403 L143.056566,215.52403 L183.112156,215.52403 C191.307301,215.600805 199.502446,215.621683 207.697591,215.599122 C216.19087,215.487326 224.608729,215.354653 233.536787,215.121969 C261.219802,214.378124 288.014626,212.124027 314.648847,208.913268 C334.166885,205.884009 353.863272,202.746658 373.751317,199.72245 C383.695339,198.210177 393.696149,196.652109 403.786576,194.796705 C467.251922,179.287746 547.109333,158.073504 622.530222,178.277544 C640.276313,183.328555 653.585881,190.399969 673.301789,194.347502 C682.091428,196.043631 691.054091,197.411781 700.144527,198.609207 C745.59759,204.594991 794.253823,206.303916 842.676695,204.772113 C853.838987,204.328634 864.989743,203.716452 876.180429,202.854076 C905.580378,200.501989 932.199515,195.787713 959.705957,191.073437 C1008.50771,182.991821 1046.6618,199.491787 1085.7032,208.920339 C1110.54773,214.644817 1138.94148,215.318285 1166.68128,214.010747 C1175.79656,213.637309 1184.91095,213.107627 1194.02357,212.511944 C1221.43418,210.653509 1248.83237,208.200739 1276.86765,206.957517 C1300.07776,205.921049 1322.46978,205.584315 1345.42435,206.471609 C1353.07558,206.767262 1360.7898,207.199292 1368.6176,207.786219 C1428.20277,213.634615 1488.53948,217.338689 1551.01903,215.545581 C1561.88762,215.52403 1571.19012,215.52403 1578.7473,215.52403 L1602,215.52403" id="Stroke-29"></path>
                <path d="M0,225.775944 L143.056328,225.775944 L162.61515,225.775944 L183.308833,225.775944 C200.612131,225.832356 217.63859,225.280368 234.456532,224.287248 C251.309967,223.281993 267.955773,221.835607 284.497765,220.103879 C314.568467,216.560069 344.322401,212.33767 374.189023,208.269422 C384.145451,206.91323 394.113414,205.574421 404.110658,204.283168 C472.574965,191.564152 566.629092,171.885427 630.987847,197.474001 C643.19004,201.305777 654.91575,205.011281 667.781645,207.635111 C714.365057,216.859513 765.80113,217.372144 817.333032,216.423958 C827.639057,216.234386 837.949519,215.986434 848.225376,215.738154 C896.705842,215.506601 944.620209,209.602984 995.196486,213.538729 C1041.04077,216.818516 1082.571,225.337108 1127.81369,225.88844 C1136.86241,225.998969 1146.05931,225.790375 1155.46916,225.158032 C1217.90956,223.378091 1276.47157,215.178622 1340.35739,219.114367 C1429.975,224.690006 1513.38149,229.281709 1602,225.777584" id="Stroke-31"></path>
                <path d="M0,239.121111 L107.223959,239.121111 L143.124429,239.121111 C151.012185,239.189449 158.860005,239.174448 166.682976,239.088776 C174.505948,239.003103 182.30407,238.847426 190.234424,238.592742 C217.070365,237.784355 242.806742,236.117577 268.543119,233.450732 C311.851229,229.717149 355.869308,222.516668 400.086179,216.308253 C411.140397,214.756149 422.207039,213.266049 433.29498,211.762282 C494.845744,199.115104 571.167414,197.11497 626.550322,215.631874 C635.675199,217.710013 644.715767,219.929161 653.923177,221.991633 C672.337999,226.116908 691.418416,229.617142 713.161217,230.117176 C769.36769,231.228583 824.956489,231.413596 880.242664,231.948632 C891.303094,232.051972 902.351987,232.169313 913.394667,232.307322 C969.637525,231.783954 1022.8852,235.450866 1078.79526,238.784422 C1089.4448,239.117777 1099.20687,239.451133 1110.0836,239.121111 C1179.07839,239.451133 1246.52544,234.450799 1315.74742,233.450732 C1331.72173,233.117376 1346.80857,233.450732 1362.78287,234.784154 C1443.54185,242.784689 1522.5259,243.784756 1603,239.495136" id="Stroke-33"></path>
                <path d="M0,249.619062 L75.931869,249.619062 L107.250614,249.619062 C130.612081,249.82086 153.662003,249.568612 177.09359,248.579607 C184.904415,248.24972 192.840391,247.814021 201.040869,247.228938 C222.142523,245.884821 242.795054,244.20099 263.249651,242.323878 C283.769931,240.424489 304.092277,238.331821 324.532673,236.17003 C365.790693,232.78697 407.721509,226.017573 449.545813,221.568523 C460.001667,220.456015 470.450421,219.48863 480.891186,218.670301 C511.783886,216.300161 544.624854,215.972567 573.915448,220.885818 C583.900877,222.278746 593.331561,224.244308 602.567861,226.424772 C630.27765,232.966491 656.239767,241.442978 690.190227,242.180064 C746.996226,243.490439 802.914632,243.490439 858.555221,245.527416 C873.562655,245.86189 888.580741,246.124292 903.604153,246.359504 C933.651864,246.829929 963.698687,247.199455 993.928355,247.737036 C1003.76201,247.871677 1013.50423,248.140304 1023.24735,248.425966 C1032.98958,248.711627 1042.73181,249.014324 1052.56546,249.215794 C1146.41341,251.680282 1239.61075,245.456001 1333.69569,245.783595 C1341.68403,246.111188 1349.67237,246.111188 1358.54831,246.766376 C1443.75731,252.990656 1523.64075,259.214937 1607,251.211167" id="Stroke-35"></path>
                <path d="M0,261.658949 L49.5334301,261.658949 L75.9378267,261.658949 C106.518533,262.277847 136.308359,261.255891 166.005871,259.520936 C173.430915,259.087279 180.849745,258.608875 188.273014,258.100529 C206.355858,256.982498 224.080099,255.650271 241.616162,254.173272 C259.152224,252.695944 276.501884,251.073844 293.83823,249.375411 C380.43652,242.441182 473.637906,223.028632 558.850602,236.847735 C604.119847,244.086313 646.726195,257.247364 698.208865,257.576391 C733.714155,257.905417 768.331813,256.589312 804.248965,258.403563 C824.985829,259.257386 845.625054,259.79995 866.193269,260.158589 C907.344788,260.870602 948.213152,260.846583 989.137437,261.044657 C999.368286,261.09401 1009.60535,261.157513 1019.89656,261.24964 C1110.07023,262.182758 1200.60872,258.892496 1291.14721,257.576391 C1317.77618,257.247364 1342.62988,257.905417 1369.25885,259.550548 C1451.80865,264.814969 1532.58318,276.330888 1613,265.539813" id="Stroke-37"></path>
                <path d="M0,274.189446 L12.8538227,274.189446 L49.5471938,274.189446 C61.0230285,274.405619 72.3603541,274.401348 83.600013,274.217042 C94.8405598,274.033394 105.984328,273.670367 117.073935,273.169358 C139.599423,272.196579 161.791956,270.597948 183.885934,268.793001 C191.250002,268.191461 198.604303,267.566924 205.966594,266.931546 C250.99626,264.71035 293.717441,259.904603 336.237074,254.452636 C350.473324,252.613849 364.680274,250.706072 378.991106,248.78121 C382.317988,247.871837 386.757383,247.871837 390.308898,248.200368 C430.263448,249.514491 470.217999,251.157144 510.172549,251.485675 C552.790736,251.814206 586.530134,262.655719 626.484684,268.24074 C672.654386,274.811354 721.487726,270.211925 768.733537,272.030999 C789.77094,272.638452 810.763948,273.068499 831.73476,273.374361 C863.192309,273.832333 894.599249,274.010396 926.031938,274.086616 C936.5169,274.111912 947.004525,274.126039 957.504581,274.13491 C1069.53625,274.811354 1180.52111,268.897802 1292.39385,268.569271 C1373.19083,268.569271 1445.9969,279.410784 1526.79388,284.995806 C1560.53328,287.624051 1591.60904,284.667275 1623,281.033397" id="Stroke-39"></path>
                <path d="M0,285.814077 L12.84988,285.814077 C21.2617273,285.814077 33.6580404,285.814077 49.8257937,285.761938 C59.7687622,285.706809 69.5927915,285.503896 79.3617892,285.175118 C115.807802,284.056606 150.618843,280.958449 185.855935,277.44251 C194.66543,276.563774 203.572562,275.69002 212.694495,274.883682 C233.970424,272.926619 256.160587,271.93032 277.463145,269.605623 C294.771472,267.613025 311.192193,264.541103 327.834816,262.216406 C344.477439,259.891708 361.345514,258.312907 379.573402,259.298578 C391.076783,259.642634 401.728061,260.638932 412.37934,261.635231 C428.356258,263.29573 443.445569,265.288327 459.422487,266.616726 C519.779733,272.594519 576.586552,276.911815 635.168584,283.221708 C651.145502,285.214305 668.010026,285.214305 685.105328,284.969548 C697.419982,284.904789 709.738185,284.858627 722.059939,284.84169 C759.025202,284.791211 796.011767,285.005083 833.064015,285.746329 C843.443686,285.808764 853.95916,285.814077 864.47286,285.814077 L895.963365,285.814077 C906.511681,285.804114 917.026268,285.798801 927.556833,285.792491 C957.369761,286.210604 988.435991,285.546405 1018.61461,284.882206 C1143.76714,281.22911 1267.14445,271.93032 1393.18458,283.885907 C1473.95677,291.524199 1553.84136,305.472383 1636,295.577143" id="Stroke-41"></path>
                <path d="M0,296.905649 C0,296.905649 4.44073078,296.905649 12.9264749,296.893121 C21.8913388,296.896418 30.7310992,296.797182 39.5114132,296.602336 C48.2943891,296.40749 57.0179185,296.117034 65.8079924,295.720418 C85.556601,294.876415 104.852707,293.523702 124.148814,291.494137 C149.160642,288.856297 174.368555,285.962619 199.666968,283.541055 C208.266281,282.807497 216.877129,282.12603 225.659217,281.597539 C256.060256,280.584405 285.3398,276.957829 313.732084,273.331252 C326.153709,271.682808 338.575334,270.034364 350.996958,271.682808 C406.894269,277.617206 458.355285,287.50787 516.861136,289.425011 C525.902305,289.780745 534.913306,290.22055 543.924307,290.716402 C570.956424,292.204617 597.988541,294.199893 625.840485,295.958453 C639.31085,296.770147 652.417438,297.040822 665.508056,296.954443 C676.796651,296.913232 688.087908,296.866087 699.378277,296.826194 C733.248498,296.706847 767.109847,296.656734 800.97297,296.897737 C811.497635,296.905649 822.036496,296.905649 832.568259,296.905649 C932.151536,297.728223 1028.86276,293.442269 1128.23575,289.486003 C1208.97631,286.189115 1287.94235,284.87036 1368.68291,292.453202 C1462.73236,301.025111 1552.34551,314.212663 1648,308.689386" id="Stroke-43"></path>
                <path d="M0,309.188607 C66.846179,308.696234 128.388824,299.506608 193.209792,292.5111 C199.581842,291.825521 205.995603,291.181392 212.434214,290.608795 C218.978434,290.08333 225.54839,289.629063 232.235493,289.322207 C270.161616,287.783583 310.097864,284.440928 347.371695,290.457707 C392.632776,297.811547 438.781329,303.159795 487.748494,305.360265 C495.573336,305.630685 503.098213,305.716592 510.614214,305.823557 C548.196886,306.358047 585.636674,307.461792 623.64622,308.833283 C636.027344,309.244764 648.044605,309.382147 660.5624,309.246435 C670.151537,309.245767 679.770848,309.245098 689.41412,309.244764 L778.658322,309.244764 L808.511111,309.244764 C912.691469,310.17937 1013.8633,303.828326 1118.58501,299.148609 C1177.15818,296.808751 1233.9564,297.143016 1292.52956,300.485671 C1416.77566,307.839512 1533.03452,321.878662 1656,322" id="Stroke-45"></path>
                <path d="M1,321.58948 C59.2401051,319.899283 113.508951,311.456392 168.871358,304.120849 C191.817496,301.006919 215.856307,299.034742 239.758424,299 C247.97877,299.102201 256.010052,299.315036 263.668528,299.519438 C312.323999,299.409142 348.716852,313.575632 394.873642,318.635092 C415.289146,320.658877 434.817018,319.984282 455.287555,320.340805 C474.097334,320.4113 492.508568,320.397809 510.897611,320.496637 C547.675696,320.69463 584.364131,321.342916 621.13334,321.936222 C630.070892,321.973325 639.110522,321.975686 648.179443,321.975348 L732.168824,321.975348 L760.360859,321.975348 C887.508613,323.357256 1010.88926,312.226442 1137.82044,309.190766 C1162.67409,308.853468 1185.75249,309.865361 1210.60614,310.539955 C1243.44848,311.889145 1275.40318,315.262119 1308.24551,316.948606 C1426.30037,322.682661 1540.80472,328.416716 1657,334" id="Stroke-47"></path>
                <path d="M2,332.466793 C23.1578275,331.575148 43.1825643,329.223835 64.2995756,327.010399 C125.466948,320.716634 187.47105,304.149907 250.066987,308.817474 C259.009263,309.484269 267.93823,310.566042 276.751847,312.079984 C318.405571,319.686439 354.785145,333.844881 403.568378,333.175052 C411.240919,333.218539 418.847799,333.132914 426.416524,333.168647 C437.538026,333.148084 448.666626,333.12988 459.798776,333.11707 C504.328261,333.065156 548.916308,333.09381 593.357063,333.364168 C602.451069,333.373944 611.610735,333.373607 620.803232,333.373607 L706.072516,333.373607 L734.75914,333.373607 C770.931971,333.17067 806.424238,333.17067 842.803811,331.822247 C981.223651,325.417237 1117.86888,311.933006 1255.40141,328.451189 C1272.26024,330.473823 1290.00637,330.810929 1306.8652,331.148035 C1422.21506,333.507775 1535.79032,335.193304 1649,343" id="Stroke-49"></path>
                <path d="M2,344.333692 C60.6110316,340.761037 113.796776,330.267769 170.262019,322.992209 C194.669151,319.774501 220.170041,317.395913 246.034038,320.334028 C276.634396,323.832011 297.034931,332.226285 323.627803,339.22191 C348.763811,345.657668 377.907305,345.378074 405.685378,345.639596 C416.657579,345.657327 427.689262,345.657327 438.732486,345.657327 C471.863047,345.657668 505.100142,345.657327 538.052257,345.655622 C547.171639,345.658009 556.351392,345.658009 565.575534,345.657668 L701.195276,345.657668 C710.452266,345.641301 719.703042,345.629367 729.004422,345.610273 C833.575472,346.237312 934.783573,334.985392 1039.54284,332.257654 C1062.62538,331.575719 1084.82014,331.575719 1107.90269,332.939588 C1171.8236,337.031196 1231.30555,344.532476 1295.22646,345.21441 C1409.75141,346.237312 1524.27637,344.191508 1637,352" id="Stroke-51"></path>
                <path d="M2,355.777109 C45.6177285,353.209558 86.7665959,347.327418 128.278427,341.445279 C169.427294,335.563465 216.76695,327.809662 259.372109,337.836177 C287.046958,344.386512 307.803317,353.610605 341.305105,355.749417 C362.425315,357.08646 382.817823,356.95256 403.435742,357.08646 L429.567331,357.08646 L728.059022,357.08646 C738.299204,356.897176 748.085905,356.795203 758.091803,356.621883 C837.64557,355.783299 913.965501,347.964338 993.835197,344.706437 C1011.58402,344.054857 1029.33284,343.729067 1047.08166,344.706437 C1137.60065,349.593288 1221.90755,359.36699 1312.42388,357.08646 L1334.48833,357.08646 L1416.00422,357.08646 C1428.62097,357.08646 1440.76206,357.08027 1452.82859,357.011202 C1510.3259,356.109089 1567.12213,357.41225 1624,360" id="Stroke-53"></path>
            </g>
        </g>
    </g>
</svg>