<svg xmlns="http://www.w3.org/2000/svg" viewBox="0 0 107.07 67.49"><defs><style>.cls-1{fill:#fff;}</style></defs><title>Asset 1</title><g id="Layer_2" data-name="Layer 2"><g id="Layer_1-2" data-name="Layer 1"><g id="otto-motos-footer-logo2"><g id="Group"><g id="Page-1"><path id="Fill-1" class="cls-1" d="M51,43.37l6.39-10.92a1.16,1.16,0,0,1,1-.57h19.2a8.22,8.22,0,0,0,7.11-4.08l9-15.5A8.2,8.2,0,0,0,86.59,0H67.84L63.73,7.08H86.59a1.12,1.12,0,0,1,1,1.68l-9,15.5a1.1,1.1,0,0,1-.95.54H58.42a8.3,8.3,0,0,0-7.15,4.09L43.5,42.18H37a17.55,17.55,0,1,1,0-35.1H55.52L59.63,0H37a24.63,24.63,0,1,0,0,49.26H47.59L51,43.37"/><path id="Fill-3" class="cls-1" d="M3.74,65.9A2,2,0,0,1,1.8,64.17h0s0-.07,0-.11c0-.49-.06-1-.06-1.49s0-1,.06-1.49c0,0,0-.08,0-.11h0v0a2,2,0,0,1,2-1.73H7.42V57.63H3.74A3.68,3.68,0,0,0,.07,61h0Q0,61.75,0,62.55t.07,1.62h0a3.69,3.69,0,0,0,3.68,3.32H7.59V65.9Z"/><path id="Fill-5" class="cls-1" d="M12.55,57.63H14.3v8.28H19.5v1.58H13.79a1.23,1.23,0,0,1-1.24-1.23Z"/><path id="Fill-7" class="cls-1" d="M31.32,59.18H26.14a.41.41,0,0,0-.42.41v2.15h5v1.55H26.14a.42.42,0,0,0-.42.42v2.23h5.68v1.55H25.22A1.23,1.23,0,0,1,24,66.25V58.86a1.23,1.23,0,0,1,1.24-1.23h6.11Z"/><path id="Fill-9" class="cls-1" d="M40.82,59.7l-1.67,3.87h2.78a.41.41,0,0,0,.38-.58L40.88,59.7a0,0,0,0,0-.06,0ZM46,67.49H44.2l-1-2.38H38.79a.42.42,0,0,0-.39.25l-.91,2.13H35.71l4-9.19a1.23,1.23,0,0,1,1.13-.74h0a1.23,1.23,0,0,1,1.13.74Z"/><path id="Fill-11" class="cls-1" d="M54.59,59.21H52.47a.41.41,0,0,0-.41.41v2.9h2.55c1.25,0,2-.65,2-1.66s-.76-1.65-2.05-1.65Zm2.08,8.28L54.24,64H52.47a.41.41,0,0,0-.41.41v3H50.32V58.87a1.24,1.24,0,0,1,1.24-1.24h3.17c2.28,0,3.68,1.2,3.68,3.13a3,3,0,0,1-2.36,3l2.68,3.73Z"/><path id="Fill-13" class="cls-1" d="M67.49,59.21H65.88a.41.41,0,0,0-.41.41v3.14h2c1.32,0,2.14-.72,2.14-1.77s-.84-1.77-2.14-1.77m-.06,5.11H65.88a.42.42,0,0,0-.42.42v2.75H63.72V58.86A1.23,1.23,0,0,1,65,57.63h2.67c2.31,0,3.76,1.3,3.76,3.31,0,2.22-1.78,3.38-4,3.38"/><path id="Fill-15" class="cls-1" d="M79.28,59.7l-1.67,3.87H80.4a.41.41,0,0,0,.38-.57l-1.43-3.3a0,0,0,0,0-.06,0Zm5.23,7.78H82.67l-.92-2.17a.34.34,0,0,0-.32-.21H77.26a.42.42,0,0,0-.39.25L76,67.49H74.18l4-9.19a1.24,1.24,0,0,1,2.26,0Z"/><path id="Fill-17" class="cls-1" d="M91.73,67.48H90V59.23H86.83V57.63h8v1.61H91.73Z"/><path id="Fill-19" class="cls-1" d="M100.6,63.74v3.74H98.86V57.63h1.74v4.1h4.31a.41.41,0,0,0,.41-.41V57.63h1.74v9.86h-1.74V63.33H101a.41.41,0,0,0-.41.41"/></g></g></g></g></g></svg>